<svg width="38" height="38" viewBox="0 0 38 38" fill="none" xmlns="http://www.w3.org/2000/svg">
<circle cx="19" cy="19" r="19" fill="#A295C9" fill-opacity="0.29"/>
<path d="M26.8928 24.0112C26.8928 24.2962 26.8295 24.5891 26.6949 24.8741C26.5603 25.1591 26.3862 25.4283 26.1566 25.6816C25.7687 26.1091 25.3412 26.4178 24.8583 26.6158C24.3833 26.8137 23.8687 26.9166 23.3145 26.9166C22.507 26.9166 21.6441 26.7266 20.7337 26.3387C19.8233 25.9508 18.9128 25.4283 18.0103 24.7712C17.0999 24.1062 16.237 23.3699 15.4137 22.5545C14.5983 21.7312 13.862 20.8683 13.2049 19.9658C12.5558 19.0633 12.0333 18.1608 11.6533 17.2662C11.2733 16.3637 11.0833 15.5008 11.0833 14.6774C11.0833 14.1391 11.1783 13.6245 11.3683 13.1495C11.5583 12.6666 11.8591 12.2233 12.2787 11.8274C12.7853 11.3287 13.3395 11.0833 13.9253 11.0833C14.147 11.0833 14.3687 11.1308 14.5666 11.2258C14.7724 11.3208 14.9545 11.4633 15.097 11.6691L16.9337 14.2578C17.0762 14.4558 17.1791 14.6378 17.2503 14.812C17.3216 14.9783 17.3612 15.1445 17.3612 15.2949C17.3612 15.4849 17.3058 15.6749 17.1949 15.857C17.092 16.0391 16.9416 16.2291 16.7516 16.4191L16.1499 17.0445C16.0628 17.1316 16.0233 17.2345 16.0233 17.3612C16.0233 17.4245 16.0312 17.4799 16.047 17.5433C16.0708 17.6066 16.0945 17.6541 16.1103 17.7016C16.2528 17.9628 16.4983 18.3033 16.8466 18.7149C17.2028 19.1266 17.5828 19.5462 17.9945 19.9658C18.422 20.3853 18.8337 20.7733 19.2533 21.1295C19.6649 21.4778 20.0053 21.7153 20.2745 21.8578C20.3141 21.8737 20.3616 21.8974 20.417 21.9212C20.4803 21.9449 20.5437 21.9528 20.6149 21.9528C20.7495 21.9528 20.8524 21.9053 20.9395 21.8183L21.5412 21.2245C21.7391 21.0266 21.9291 20.8762 22.1112 20.7812C22.2933 20.6703 22.4753 20.6149 22.6733 20.6149C22.8237 20.6149 22.982 20.6466 23.1562 20.7178C23.3303 20.7891 23.5124 20.892 23.7103 21.0266L26.3308 22.887C26.5366 23.0295 26.6791 23.1958 26.7662 23.3937C26.8453 23.5916 26.8928 23.7895 26.8928 24.0112Z" stroke="white" stroke-width="1.5" stroke-miterlimit="10"/>
</svg>
