<svg width="75" height="75" viewBox="0 0 75 75" fill="none" xmlns="http://www.w3.org/2000/svg">
<circle cx="37.5" cy="37.5" r="37.5" fill="#7706FC"/>
<path d="M23.7705 50H52.459" stroke="white" stroke-width="1.5" stroke-miterlimit="10" stroke-linecap="round" stroke-linejoin="round"/>
<path d="M34.8872 24.1804V50H41.3421V24.1804C41.3421 22.6025 40.6966 21.3115 38.7602 21.3115H37.4692C35.5327 21.3115 34.8872 22.6025 34.8872 24.1804Z" fill="white"/>
<path d="M25.2048 32.7868V49.9999H30.9425V32.7868C30.9425 31.209 30.3688 29.918 28.6475 29.918H27.4999C25.7786 29.918 25.2048 31.209 25.2048 32.7868Z" fill="white"/>
<path d="M45.2869 39.9589V49.9999H51.0246V39.9589C51.0246 38.3811 50.4508 37.0901 48.7295 37.0901H47.5819C45.8606 37.0901 45.2869 38.3811 45.2869 39.9589Z" fill="white"/>
</svg>
