<svg width="68" height="68" viewBox="0 0 68 68" fill="none" xmlns="http://www.w3.org/2000/svg">
<circle cx="34" cy="34" r="34" fill="#7706FC"/>
<path d="M44 34V31C44 26 42 24 37 24H31C26 24 24 26 24 31V37C24 42 26 44 31 44H34" stroke="white" stroke-width="2" stroke-linecap="round" stroke-linejoin="round"/>
<path d="M42.9599 39.84L41.3299 40.39C40.8799 40.54 40.5199 40.89 40.3699 41.35L39.8199 42.98C39.3499 44.39 37.3699 44.36 36.9299 42.95L35.0799 37C34.7199 35.82 35.8099 34.72 36.9799 35.09L42.9399 36.94C44.3399 37.38 44.3599 39.37 42.9599 39.84Z" stroke="white" stroke-width="2" stroke-linecap="round" stroke-linejoin="round"/>
</svg>
